<?xml version="1.0" standalone="no"?>
<!DOCTYPE svg PUBLIC "-//W3C//DTD SVG 20010904//EN"
 "http://www.w3.org/TR/2001/REC-SVG-20010904/DTD/svg10.dtd">
<svg version="1.0" xmlns="http://www.w3.org/2000/svg"
 width="321.000000pt" height="275.000000pt" viewBox="0 0 321.000000 275.000000"
 preserveAspectRatio="xMidYMid meet">
<metadata>
Created by potrace 1.16, written by Peter Selinger 2001-2019
</metadata>
<g transform="translate(0.000000,275.000000) scale(0.100000,-0.100000)"
fill="#000000" stroke="none">
<path d="M1473 2570 c-96 -34 -98 -35 -791 -504 -144 -98 -283 -198 -308 -222
-58 -57 -107 -159 -112 -237 -6 -73 15 -158 83 -352 30 -82 106 -298 170 -480
63 -181 128 -355 142 -385 38 -78 104 -140 183 -170 l65 -25 640 -3 c667 -3
725 0 815 39 58 26 125 91 157 153 13 26 53 130 88 230 34 99 93 264 130 366
178 493 192 562 149 735 -22 89 -71 133 -384 345 -679 461 -709 481 -805 513
-64 22 -157 21 -222 -3z m136 -614 c10 -11 9 -16 -5 -24 -24 -14 -8 -33 22
-26 17 4 31 0 45 -12 19 -17 21 -18 30 -1 14 23 22 22 58 -12 54 -50 40 -113
-43 -188 l-46 -42 0 -111 0 -111 -47 8 c-60 10 -118 10 -164 0 l-36 -7 -7 46
c-3 26 -6 79 -6 119 0 71 -1 73 -34 96 -76 52 -97 139 -47 190 32 31 81 40 81
14 0 -17 27 -20 32 -4 2 6 15 12 28 13 19 1 25 7 25 24 0 12 7 27 15 32 23 15
86 12 99 -4z m-305 -736 c16 -14 42 -38 57 -54 35 -37 52 -27 44 28 l-6 41 26
-30 c56 -67 54 -116 -9 -229 -46 -83 -53 -88 -95 -70 l-33 14 41 45 c36 39 41
51 41 90 0 43 -5 51 -65 115 -49 52 -65 76 -64 97 l0 28 17 -25 c9 -14 30 -36
46 -50z m527 -4 c-12 -19 -33 -41 -47 -51 -35 -23 -64 -74 -64 -113 0 -24 10
-44 41 -77 22 -24 38 -48 35 -54 -3 -5 -19 -14 -36 -19 -27 -10 -31 -8 -50 18
-36 51 -80 154 -80 189 0 34 43 121 60 121 4 0 4 -16 -2 -36 -17 -62 3 -63 70
-4 33 29 66 64 73 79 13 26 13 26 17 3 2 -12 -6 -38 -17 -56z m-531 -341 c183
-73 366 -67 535 18 l40 20 57 -63 c32 -34 55 -67 51 -72 -8 -14 -123 -66 -196
-89 -155 -49 -335 -51 -470 -5 -82 27 -207 94 -207 109 0 10 89 117 97 117 3
0 45 -16 93 -35z m-317 -77 c10 -17 12 -46 8 -108 l-6 -85 -40 0 -40 0 2 95
c2 77 5 97 19 107 26 19 42 16 57 -9z m1192 -2 c12 -18 15 -45 13 -107 l-3
-84 -40 0 -40 0 -3 95 c-2 80 0 97 15 107 25 19 41 16 58 -11z m-110 -215 c0
-94 8 -115 50 -125 36 -9 73 10 97 50 l22 37 18 -23 c23 -29 23 -52 -1 -74
-32 -29 -93 -32 -143 -7 -55 26 -168 127 -168 149 0 40 93 114 115 91 5 -5 10
-50 10 -98z m-943 59 c21 -23 38 -45 38 -50 0 -4 -30 -36 -67 -70 -102 -94
-169 -118 -233 -85 -37 19 -44 64 -15 94 12 12 17 9 35 -23 31 -51 92 -64 132
-29 14 12 17 31 15 97 -1 44 2 87 6 94 15 23 50 12 89 -28z"/>
<path d="M1188 825 c-3 -16 -1 -25 7 -25 7 0 15 -9 18 -21 3 -12 10 -18 17
-14 6 4 22 -3 35 -15 17 -16 31 -21 48 -16 17 4 27 1 31 -9 4 -11 13 -14 31
-9 15 4 25 2 25 -5 0 -7 18 -10 45 -9 42 1 45 3 45 29 0 34 -16 47 -25 20 -5
-15 -53 -36 -63 -27 -7 8 12 36 24 36 8 0 14 5 14 11 0 7 -10 9 -24 5 -14 -3
-28 -1 -31 5 -4 6 -14 8 -22 5 -9 -4 -22 1 -29 11 -13 17 -15 17 -34 -6 l-20
-23 0 26 c0 32 -6 33 -30 4 -22 -28 -37 -17 -22 16 9 20 8 25 -4 30 -26 10
-31 7 -36 -19z"/>
</g>
</svg>
